# xmcd
# 
# Track frame offsets:
#	150
#	19354
#	44189
#	62298
#	74833
#	88405
#	103944
#	130919
#	149986
#	155840
#	167917
#	178224
#	193633
#	213798
#	229898
#	241452
#	255741
#
# Disc length: 3886 seconds
#
# Revision: 1
# Processed by: cddbd v1.5.1PL0 Copyright (c) Steve Scherf et al.
# Submitted via: Audio-CD-Archiv 3.00.487
#
DISCID=180f2c11
DTITLE=Colin John - Double Impact
DYEAR=1900
DGENRE=blues
TTITLE0=Leftovers
TTITLE1=Drivin Wheel
TTITLE2=Some Old Blues
TTITLE3=The Strutter
TTITLE4=Universal Blues
TTITLE5=Sweet Louisa
TTITLE6=Venus Rising
TTITLE7=You're The King Of Lover
TTITLE8=Spank On The Blank
TTITLE9=Hard Living
TTITLE10=Hard Hearted Baby
TTITLE11=It's My Own Business
TTITLE12=Don't Do It
TTITLE13=Pucker Up
TTITLE14=Musta Notta Gotta
TTITLE15=Trust (Bonus Track)
TTITLE16=Step It! (Bonus Track)
EXTD=
EXTT0=
EXTT1=
EXTT2=
EXTT3=
EXTT4=
EXTT5=
EXTT6=
EXTT7=
EXTT8=
EXTT9=
EXTT10=
EXTT11=
EXTT12=
EXTT13=
EXTT14=
EXTT15=
EXTT16=
PLAYORDER=
